<svg xmlns="http://www.w3.org/2000/svg" viewBox="32.5 99.67 210 35.66">
        <g fill="white" transform="scale(0.5)" data-darkreader-inline-fill="" style="--darkreader-inline-fill: var(--darkreader-background-ffffff, #181a1b);">
            <g data-paper-data="{&quot;isGlobalGroup&quot;:true,&quot;bounds&quot;:{&quot;x&quot;:64.99999999999999,&quot;y&quot;:199.33856828572598,&quot;width&quot;:420,&quot;height&quot;:71.32286342854806}}">
                <g data-paper-data="{&quot;isPrimaryText&quot;:true}" fill-rule="nonzero">
                    <path d="M187.27859,209.12647c2.00959,0 4.01919,0 6.02878,0c0,0.10048 0,0.20096 0,0.30144c-0.10048,1.80863 0,3.71775 0,5.52638v11.65565c0,11.45469 -0.10048,22.90938 -0.10048,34.36406c0,3.31583 2.71295,6.02878 6.02878,6.02878c2.41151,0 4.82303,-1.60768 5.62686,-3.91871c0.20096,-0.70336 0.40192,-1.40672 0.40192,-2.11007c0.10048,-1.80863 0,-3.71775 0,-5.52638v-11.75613c0,-11.45469 0.10048,-22.8089 0.10048,-34.26358c0,-0.10048 0,-0.30144 0,-0.40192c4.01919,0 8.84222,0 9.24413,-0.20096c1.20576,-0.5024 2.00959,-1.5072 2.00959,-2.81343c0,-3.11487 -2.91391,-3.01439 -5.22495,-3.01439c-4.72255,0 -9.44509,-0.10048 -14.16764,-0.10048c-1.30624,0 -12.15805,0 -12.76092,0.30144c-1.20576,0.5024 -2.00959,1.5072 -2.00959,2.81343c0,2.81343 2.61247,3.11487 4.82303,3.11487z" data-paper-data="{&quot;glyphName&quot;:&quot;T&quot;,&quot;glyphIndex&quot;:0,&quot;firstGlyphOfWord&quot;:true,&quot;word&quot;:1}"/>
                    <path d="M222.64745,211.9399v49.73746c0,3.31583 2.71295,6.02878 6.02878,6.02878c3.31583,0 6.02878,-2.71295 6.02878,-6.02878v-4.62207c4.82303,4.01919 11.95709,9.74653 12.76092,10.24893c0.5024,0.30144 1.20576,0.5024 1.80863,0.5024c1.60768,0 3.01439,-1.40672 3.01439,-3.01439c0,-0.70336 -0.30144,-1.30624 -0.70336,-1.90911c-0.30144,-0.40192 -4.22015,-3.21535 -5.02399,-3.91871c-2.41151,-2.00959 -4.82303,-4.01919 -7.13406,-6.02878c10.24893,-3.91871 18.08635,-16.98107 18.08635,-27.93336c0,-11.25373 -5.82782,-19.99546 -17.18203,-22.20602c-2.31103,-0.40192 -4.62207,-0.5024 -6.9331,-0.5024c-4.72255,0 -11.45469,0.70336 -11.45469,6.83262c0,1.0048 0.30144,2.00959 0.70336,2.81343zM234.70502,241.88286v-27.53144c7.4355,0.10048 10.75133,3.11487 10.75133,10.65085c0,6.12926 -4.62207,14.77052 -10.75133,16.88059z" data-paper-data="{&quot;glyphName&quot;:&quot;R&quot;,&quot;glyphIndex&quot;:1,&quot;word&quot;:1}"/>
                    <path d="M265.65277,214.9543c0,15.47388 -0.30144,30.84727 -0.30144,46.32115c0,3.31583 2.71295,6.02878 6.02878,6.02878c2.41151,0 4.82303,-1.60768 5.62686,-3.91871c0.60288,-1.80863 0.40192,-5.22495 0.40192,-7.23454c0,-15.67484 0.30144,-31.45015 0.30144,-47.12499c0,-3.31583 -2.71295,-6.02878 -6.02878,-6.02878c-2.41151,0 -4.82303,1.60768 -5.62686,3.91871c-0.70336,1.90911 -0.40192,5.9283 -0.40192,8.03838z" data-paper-data="{&quot;glyphName&quot;:&quot;I&quot;,&quot;glyphIndex&quot;:2,&quot;word&quot;:1}"/>
                    <path d="M288.16023,209.12647c0,1.0048 0.30144,2.00959 0.70336,2.81343v49.73746c0,3.31583 2.71295,6.02878 6.02878,6.02878c3.31583,0 6.02878,-2.71295 6.02878,-6.02878v-7.53598c10.85181,-1.60768 18.48827,-10.95229 21.50266,-21.3017c0.70336,-2.51199 1.30624,-5.22495 1.30624,-7.83742c0,-11.25373 -5.82782,-19.99546 -17.18203,-22.20602c-2.31103,-0.40192 -4.62207,-0.5024 -6.9331,-0.5024c-4.72255,0 -11.45469,0.70336 -11.45469,6.83262zM300.92116,241.88286v-27.53144c7.4355,0.10048 10.75133,3.11487 10.75133,10.65085c0,6.12926 -4.62207,14.77052 -10.75133,16.88059z" data-paper-data="{&quot;glyphName&quot;:&quot;P&quot;,&quot;glyphIndex&quot;:3,&quot;word&quot;:1}"/>
                    <path d="M336.08906,246.90685h29.44056c2.71295,0 5.02399,-2.31103 5.02399,-5.02399c0,-2.71295 -2.31103,-5.02399 -5.02399,-5.02399h-29.44056c-2.71295,0 -5.02399,2.31103 -5.02399,5.02399c0,2.71295 2.31103,5.02399 5.02399,5.02399z" data-paper-data="{&quot;glyphName&quot;:&quot;-&quot;,&quot;glyphIndex&quot;:4,&quot;word&quot;:1}"/>
                    <path d="M383.9174,264.4908c1.10528,1.80863 3.01439,3.01439 5.22495,3.01439c3.31583,0 6.02878,-2.71295 6.02878,-6.02878c0,-1.0048 -0.40192,-2.00959 -0.70336,-3.01439c-1.80863,-6.83262 -2.00959,-15.17244 -2.00959,-22.20602c0,-6.12926 0.30144,-13.8662 2.51199,-19.59355c3.01439,5.72734 4.11967,12.8614 5.62686,19.09115c0.5024,2.21055 1.10528,5.32543 2.31103,7.33502c1.10528,1.80863 3.11487,3.01439 5.22495,3.01439c1.90911,0 3.31583,-0.80384 4.62207,-2.11007c4.72255,-4.92351 5.52638,-19.89498 8.54078,-26.62713c0.40192,-0.90432 1.0048,-2.11007 2.00959,-2.51199c0.20096,0.70336 0.60288,1.20576 0.90432,1.90911c1.80863,4.22015 2.00959,10.44989 2.00959,14.97148c0,7.13406 -0.90432,18.08635 -2.91391,25.01945c-0.5024,1.60768 -1.40672,3.21535 -1.40672,4.92351c0,3.31583 2.71295,6.02878 6.02878,6.02878c2.21055,0 4.11967,-1.20576 5.22495,-3.01439c3.61727,-5.82782 5.12447,-25.72281 5.12447,-32.95735c0,-10.04797 -1.40672,-28.93816 -15.17244,-28.93816c-8.4403,0 -12.96188,8.03838 -14.77052,15.27292c-1.80863,-6.02878 -5.72734,-14.97148 -13.16284,-14.97148c-14.16764,0 -14.77052,23.21082 -14.77052,33.15831c0,5.82782 0.80384,23.81369 3.51679,28.2348z" data-paper-data="{&quot;glyphName&quot;:&quot;M&quot;,&quot;glyphIndex&quot;:5,&quot;word&quot;:1}"/>
                    <path d="M445.31051,242.38526c0,14.16764 6.63166,25.42137 21.60314,25.42137c2.61247,0 9.04317,-0.20096 11.15325,-1.5072c1.80863,-1.10528 3.01439,-3.11487 3.01439,-5.22495c0,-3.31583 -2.71295,-6.02878 -6.02878,-6.02878c-1.10528,0 -2.21055,0.30144 -3.31583,0.5024c-1.60768,0.20096 -3.21535,0.20096 -4.82303,0.20096c-2.51199,0 -5.02399,-0.70336 -6.83262,-2.51199l-0.20096,-0.20096c-0.90432,-1.30624 -1.5072,-2.81343 -1.90911,-4.42111c5.4259,0.20096 16.17723,0.20096 19.59355,0.20096c0.20096,0 0.40192,0 0.5024,0c0.5024,0 0.90432,-0.10048 1.30624,-0.30144c1.40672,-0.5024 2.61247,-1.5072 3.31583,-2.71295c1.60768,-2.71295 2.31103,-14.77052 2.31103,-18.38779c0,-10.95229 -3.31583,-25.22041 -16.88059,-25.22041c-3.21535,0 -6.73214,1.20576 -9.34461,3.11487c-10.85181,7.73694 -13.46428,24.61753 -13.46428,37.07702zM457.36808,242.58622c0,-7.9379 1.10528,-19.89498 6.73214,-26.02425c1.10528,-1.20576 2.41151,-2.31103 4.22015,-2.31103c4.11967,0 4.62207,10.24893 4.62207,13.16284c0,3.31583 -0.20096,6.63166 -0.70336,9.94749c-0.30144,1.80863 -0.80384,3.51679 -0.80384,5.32543c-5.02399,-0.10048 -11.05277,-0.10048 -14.06716,-0.10048z" data-paper-data="{&quot;glyphName&quot;:&quot;E&quot;,&quot;glyphIndex&quot;:6,&quot;lastGlyphOfWord&quot;:true,&quot;word&quot;:1}"/>
                </g>
                <g data-paper-data="{&quot;isIcon&quot;:&quot;true&quot;,&quot;iconType&quot;:&quot;icon&quot;,&quot;rawIconId&quot;:&quot;3202994&quot;,&quot;source&quot;:&quot;noun&quot;,&quot;selectedEffects&quot;:{&quot;container&quot;:&quot;&quot;,&quot;transformation&quot;:&quot;&quot;,&quot;pattern&quot;:&quot;&quot;},&quot;isDetailed&quot;:false,&quot;fillRule&quot;:&quot;evenodd&quot;,&quot;bounds&quot;:{&quot;x&quot;:64.99999999999999,&quot;y&quot;:199.33856828572598,&quot;width&quot;:81.43837254544071,&quot;height&quot;:71.32286342854806},&quot;iconStyle&quot;:&quot;standalone&quot;,&quot;suitableAsStandaloneIcon&quot;:true}" fill-rule="evenodd">
                    <path d="M133.75113,199.33857c-7.02942,0 -12.68724,5.65783 -12.68724,12.68724c0,10.88702 11.65855,22.88847 12.17289,23.40281c0.17145,0.17145 0.3429,0.17145 0.51435,0.17145c0.17145,0 0.3429,-0.08573 0.51435,-0.17145c0.51435,-0.51435 12.17289,-12.43007 12.17289,-23.40281c0,-7.02942 -5.65783,-12.68724 -12.68724,-12.68724zM133.75113,218.45516c-3.51471,0 -6.42934,-2.91463 -6.42934,-6.42934c0,-3.51471 2.91463,-6.42934 6.42934,-6.42934c3.51471,0 6.42934,2.91463 6.42934,6.42934c0,3.51471 -2.91463,6.42934 -6.42934,6.42934zM80.43043,226.2561c-8.48674,0 -15.43043,6.94369 -15.43043,15.43043c0,13.28731 14.23028,27.77477 14.83036,28.37484c0.17145,0.17145 0.3429,0.25717 0.60007,0.25717c0.25717,0 0.42862,-0.08573 0.60007,-0.25717c0.60007,-0.60007 14.83036,-15.17326 14.83036,-28.37484c0,-8.57246 -6.94369,-15.43043 -15.43043,-15.43043zM111.54846,242.20087l16.63057,-4.71485c-1.0287,-1.11442 -2.40029,-2.74319 -3.94333,-4.80058l-14.23028,4.02906c-2.74319,0.77152 -4.8863,3.00036 -5.48637,5.82927c-0.60007,2.82891 0.42862,5.74355 2.65746,7.54377l13.88738,11.31565c1.0287,0.77152 0.77152,1.80022 0.60007,2.22884c-0.17145,0.42862 -0.60007,1.28587 -1.88594,1.28587h-27.94622c-1.62877,2.31456 -3.17181,4.20051 -4.45768,5.74355h32.4039c3.34326,0 6.17217,-1.97167 7.28659,-5.14348c1.11442,-3.08609 0.17145,-6.51507 -2.40029,-8.57246l-13.88738,-11.22992c-0.85724,-0.6858 -0.77152,-1.62877 -0.6858,-1.97167c0.08573,-0.3429 0.3429,-1.20015 1.45732,-1.54304zM80.43043,249.48746c-4.28623,0 -7.80094,-3.51471 -7.80094,-7.80094c0,-4.28623 3.51471,-7.80094 7.80094,-7.80094c4.28623,0 7.80094,3.51471 7.80094,7.80094c0,4.28623 -3.51471,7.80094 -7.80094,7.80094z" data-paper-data="{&quot;isPathIcon&quot;:true}">
                    </path>
                </g>    
            </g>
        </g>
    </svg>